<svg width="1385" height="676" viewBox="0 0 1385 676" fill="none" xmlns="http://www.w3.org/2000/svg">
<path d="M261.686 157.801C310.971 171.196 313.013 282.331 286.181 384.915C257.01 496.429 192.434 707.462 62.1319 672.044C12.8465 658.648 -7.67601 615.473 2.56705 576.233C14.8142 529.425 30.7353 518.263 65.4726 484.964C191.21 363.573 169.833 287.705 190.356 209.225C200.97 168.623 229.25 149.022 261.649 157.838L261.686 157.801ZM289.298 2.35458C327.115 12.647 338.769 48.2542 330.679 79.2072C320.955 116.366 285.958 134.151 248.808 124.047C217.745 115.609 199.077 84.7319 207.724 51.6977C216.891 16.5824 251.517 -7.90001 289.335 2.35458H289.298Z" fill="#EAE563"/>
<path d="M430.436 221.069C513.197 214.106 567.901 321.041 573.691 392.824C580.334 474.671 540.884 540.134 452.556 547.588C375.993 554.059 320.694 501.008 314.348 422.944C306.889 331.031 353.836 227.501 430.399 221.069H430.436ZM446.581 320.512C416.928 323.009 408.8 406.749 457.603 402.624C499.614 399.067 479.314 317.749 446.581 320.512Z" fill="#EAE563"/>
<path d="M585.753 329.18C571.316 272.95 570.499 209.833 623.83 195.567C646.617 189.475 674.229 199.768 681.911 229.699C697.127 288.994 702.248 386.242 742.998 375.382C779.554 365.619 717.873 274.993 711.452 249.905C703.139 217.514 712.529 196.703 741.291 189.021C780.853 178.464 818.263 216.833 831.104 266.933C862.65 389.799 855.301 475.998 749.196 504.302C686.254 521.103 622.42 496.999 601.228 414.471C594.325 387.567 592.173 354.192 585.753 329.142V329.18Z" fill="#EAE563"/>
<path d="M907.369 257.473C948.267 257.473 945.15 304.243 961.294 304.243C982.968 304.243 1006.53 270.111 1045.58 270.111C1084.62 270.111 1102.58 314.346 1102.58 340.229C1102.58 379.393 1085.84 414.167 1046.8 414.167C1018.3 414.167 1015.18 401.529 990.428 401.529C977.401 401.529 970.609 410.989 970.609 417.951C970.609 464.721 999.111 483.036 999.111 523.449C999.111 563.862 977.438 592.317 921.027 591.674C879.498 591.03 849.771 554.402 849.771 512.702C849.771 448.261 877.642 441.942 877.642 371.181C877.642 358.543 863.392 327.59 863.392 302.313C863.392 271.36 881.984 257.473 907.406 257.473H907.369Z" fill="#EAE563"/>
<path d="M1236.71 272.68C1267.06 272.037 1277.6 251.187 1314.79 249.295C1347.64 248.047 1363.11 271.394 1364.37 306.169C1366.23 344.084 1348.86 373.145 1368.08 414.845C1377.36 433.802 1384.82 454.652 1384.82 482.464C1384.82 518.488 1361.29 557.009 1322.25 557.009C1279.5 557.009 1252.22 528.591 1250.36 483.713C1249.73 452.76 1273.89 423.699 1272.67 392.103C1272.04 375.037 1262.13 354.831 1241.68 354.831C1217.52 354.831 1218.15 382 1218.74 395.281C1219.97 419.272 1230.51 430.661 1231.77 463.506C1233.63 510.276 1221.23 565.22 1164.86 565.22C1124.59 565.22 1102.88 529.84 1101.02 490.675C1099.17 437.586 1125.81 392.746 1125.81 340.944C1125.81 301.779 1106 232.268 1159.29 229.732C1198.33 228.484 1206.39 273.967 1236.74 272.68H1236.71Z" fill="#EAE563"/>
</svg>
