<?xml version="1.0" encoding="UTF-8"?>
<svg id="Layer_1" data-name="Layer 1" xmlns="http://www.w3.org/2000/svg" viewBox="0 0 432.12 345.38">
  <defs>
    <style>
      .cls-1 {
        fill: #eae563;
      }
    </style>
  </defs>
  <g>
    <path class="cls-1" d="M162.76,110.07c14.73,4.19,14.8,36.91,6.26,66.97-9.29,32.68-29.69,94.46-68.62,83.4-14.73-4.19-20.68-17-17.41-28.49,3.9-13.72,8.73-16.92,19.32-26.56,38.32-35.11,32.27-57.54,38.81-80.54,3.38-11.9,11.96-17.53,21.64-14.78ZM171.8,64.46c11.3,3.21,14.62,13.75,12.04,22.83-3.1,10.89-13.69,15.95-24.78,12.79-9.28-2.64-14.74-11.82-11.98-21.5,2.92-10.29,13.43-17.33,24.73-14.12Z"/>
    <path class="cls-1" d="M197.8,103.96c13.83.6,12.11,16.06,17.56,16.29,7.33.32,15.78-10.65,28.98-10.08,12.99.56,18.64,15.5,18.27,24.09-.56,12.99-6.71,24.27-19.92,23.7-9.64-.42-10.5-4.65-18.88-5.01-4.4-.19-6.84,2.85-6.94,5.16-.67,15.5,8.7,22,8.13,35.4-.56,12.99-8.32,22.52-27.38,21.49-14.02-.82-23.56-13.4-22.96-27.23.92-21.37,10.44-23.06,11.46-46.52.18-4.19-4.19-14.66-3.83-23.04.44-10.27,6.93-14.6,15.52-14.23Z"/>
    <path class="cls-1" d="M265.12,169.57c9.8-3.1,11.26-10.75,23.16-14.91,10.54-3.54,17.76,2.42,21.42,13.36,4.16,11.89,1.25,22.8,11.4,34.25,4.8,5.14,9.16,11.07,11.77,19.93,3.38,11.47-.65,25.99-13.33,29.72-13.88,4.09-25.4-2.36-30.21-16.46-3.1-9.8,2.01-21.36-1.35-31.3-1.8-5.37-6.91-10.86-13.55-8.91-7.85,2.31-5.1,10.9-3.65,15.07,2.65,7.53,7.14,10.14,10.62,20.48,4.99,14.71,6.12,33.39-12.19,38.79-13.08,3.85-23.43-5.34-27.71-17.64-5.58-16.72-1.14-33.55-5.99-50.05-3.67-12.47-16.63-32.7.43-38.6,12.56-4.14,19.44,9.58,29.18,6.27Z"/>
  </g>
  <path class="cls-1" d="M159.27,344.27l-36.46-4.68c-24.49-3.14-45.7-15.13-63.6-32.03C22.73,273.13,1.74,217.85.14,167.86c-.96-29.99,2.93-58.62,17.26-84.88,10.23-18.75,24.09-34.18,41.79-46.56C86.73,17.15,118.73,5.27,152.21,1.17c32.7-4,69.8,2.78,100.92,13.14,27.41,9.12,53.55,19.08,80.18,30.03,17.03,7,32.01,15.85,44.7,29.12,33.81,35.35,59.6,88.86,53.1,137.91-2.45,18.54-11.31,34.95-24.91,47.17-68.84,61.84-153.15,93.32-246.93,85.74ZM392.38,242.68c18.94-16.95,22-41.81,17.01-66.71-6.16-30.8-20.7-58.52-41.19-82.42-9.7-11.31-21.67-20.17-35.64-26.15-32.93-14.1-65.62-26.9-100.06-36.94-58.41-17.03-116-10.03-164.84,25.7-25.5,18.65-40.45,45.77-44.89,76.59-2.11,14.64-2.86,28.25-1.39,42.96,3.6,35.99,14.97,70.3,36.71,99.27,13.45,17.93,30.27,32.85,51.89,39.6,23.33,7.28,47.07,8.58,71.54,9.15,80.46,1.86,151.69-28.08,210.87-81.03Z"/>
</svg>